<?xml version="1.0" encoding="UTF-8" standalone="no"?>
<svg
   width="424.05957mm"
   height="223.10095mm"
   viewBox="0 0 424.05958 223.10096"
   version="1.1"
   id="svg3527"
   xmlns="http://www.w3.org/2000/svg"
   xmlns:svg="http://www.w3.org/2000/svg"
   xmlns:rdf="http://www.w3.org/1999/02/22-rdf-syntax-ns#"
   xmlns:cc="http://creativecommons.org/ns#"
   xmlns:dc="http://purl.org/dc/elements/1.1/">
  <g
     id="g3183"
     transform="matrix(0.52373164,0,0,0.52373164,238.17583,-134.75939)">
    <rect
       style="font-variation-settings:normal;opacity:1;vector-effect:none;fill:#ffffff;fill-opacity:1;stroke:none;stroke-width:4.60499;stroke-linecap:round;stroke-linejoin:miter;stroke-miterlimit:4;stroke-dasharray:none;stroke-dashoffset:0;stroke-opacity:1;stop-color:#000000;stop-opacity:1"
       id="rect2896"
       width="809.68866"
       height="425.98334"
       x="-454.76694"
       y="257.30618"
       ry="2.8421552" />
    <g
       id="g2894"
       transform="rotate(-24.532892,223.15535,131.22564)">
      <g
         id="g2878"
         transform="matrix(0.51114705,0,0,0.51114705,68.850404,144.07981)">
        <rect
           style="font-variation-settings:normal;opacity:1;vector-effect:none;fill:#666666;fill-opacity:1;stroke:#000000;stroke-width:1.5875;stroke-linecap:round;stroke-linejoin:miter;stroke-miterlimit:4;stroke-dasharray:none;stroke-dashoffset:0;stroke-opacity:1;stop-color:#000000;stop-opacity:1"
           id="rect2859"
           width="251.64903"
           height="40.47781"
           x="-216.73409"
           y="273.37277"
           ry="3.3399677" />
        <path
           id="rect2473"
           style="fill:#ececec;stroke:#000000;stroke-width:1.5875;stroke-linecap:round;stroke-miterlimit:4;stroke-dasharray:none;stop-color:#000000"
           d="m -132.70079,210.78067 h -0.0219 c 0,0 107.071144,-1.14963 109.292852,0 2.221708,1.14963 43.795161,28.80299 65.252468,42.30849 1.565972,0.98565 -1.489632,3.33509 -3.339968,3.33996 l -200.816732,0.52917 c -1.85033,0.005 -4.45042,-1.85987 -3.33997,-3.33996 3.98772,-11.77879 24.54372,-37.24259 32.9733,-42.83766 z" />
        <path
           id="rect2470"
           style="fill:#cccccc;stroke:#000000;stroke-width:1.5875;stroke-linecap:round;stroke-miterlimit:4;stroke-dasharray:none;stop-color:#000000"
           d="m -233.10222,269.75692 66.4662,-17.4625 H 40.295485 c 1.850342,0 3.339967,1.48962 3.339967,3.33997 v 55.62442 c 0,1.85035 -1.489625,3.33997 -3.339967,3.33997 H 21.175461 c 0,-42.47795 -67.373275,-40.47546 -67.373275,0 h -91.314196 c 0,-41.78173 -67.22058,-41.3202 -67.22058,0 h -28.36963 c -1.85034,0 -3.33996,-1.48962 -3.33996,-3.33997 v -38.16192 c 0,-1.85035 1.5643,-2.8196 3.33996,-3.33997 z" />
        <g
           id="g2503">
          <circle
             style="fill:#999999;stroke:#000000;stroke-width:1.5875;stroke-linecap:round;stroke-miterlimit:4;stroke-dasharray:none;stop-color:#000000"
             id="path2477"
             cx="-171.57939"
             cy="316.80533"
             r="29.496529" />
          <circle
             style="font-variation-settings:normal;opacity:1;vector-effect:none;fill:#ffffff;fill-opacity:1;stroke:#000000;stroke-width:1.5875;stroke-linecap:round;stroke-linejoin:miter;stroke-miterlimit:4;stroke-dasharray:none;stroke-dashoffset:0;stroke-opacity:1;stop-color:#000000;stop-opacity:1"
             id="circle2482"
             cx="-171.57939"
             cy="316.80533"
             r="17.245382" />
        </g>
        <g
           id="g2509"
           transform="translate(159.07872)">
          <circle
             style="fill:#999999;stroke:#000000;stroke-width:1.5875;stroke-linecap:round;stroke-miterlimit:4;stroke-dasharray:none;stop-color:#000000"
             id="circle2505"
             cx="-171.57939"
             cy="316.80533"
             r="29.496529" />
          <circle
             style="font-variation-settings:normal;opacity:1;vector-effect:none;fill:#ffffff;fill-opacity:1;stroke:#000000;stroke-width:1.5875;stroke-linecap:round;stroke-linejoin:miter;stroke-miterlimit:4;stroke-dasharray:none;stroke-dashoffset:0;stroke-opacity:1;stop-color:#000000;stop-opacity:1"
             id="circle2507"
             cx="-171.57939"
             cy="316.80533"
             r="17.245382" />
        </g>
        <rect
           style="font-variation-settings:normal;opacity:1;vector-effect:none;fill:#e6e6e6;fill-opacity:1;stroke:#000000;stroke-width:1.5875;stroke-linecap:round;stroke-linejoin:miter;stroke-miterlimit:4;stroke-dasharray:none;stroke-dashoffset:0;stroke-opacity:1;stop-color:#000000;stop-opacity:1"
           id="rect2863"
           width="26.780081"
           height="13.352294"
           x="-241.25467"
           y="294.51266"
           ry="3.3399677" />
        <rect
           style="font-variation-settings:normal;opacity:1;vector-effect:none;fill:#e6e6e6;fill-opacity:1;stroke:#000000;stroke-width:1.5875;stroke-linecap:round;stroke-linejoin:miter;stroke-miterlimit:4;stroke-dasharray:none;stroke-dashoffset:0;stroke-opacity:1;stop-color:#000000;stop-opacity:1"
           id="rect2865"
           width="26.780081"
           height="13.352294"
           x="27.840765"
           y="294.51266"
           ry="3.3399677" />
      </g>
    </g>
    <path
       style="fill:none;stroke:#000000;stroke-width:5.18583;stroke-linecap:butt;stroke-linejoin:miter;stroke-miterlimit:4;stroke-dasharray:none;stroke-opacity:1"
       d="M 312.51206,382.15198 C 124.29664,328.85934 51.089979,419.75758 -26.22696,525.09257 -99.856756,625.40428 -327.55772,722.99369 -429.65517,558.58919"
       id="path2880" />
  </g>
  <defs
     id="defs3521">
    <marker
       style="overflow:visible"
       id="marker4527"
       refX="0"
       refY="0"
       orient="auto">
      <path
         transform="matrix(-0.8,0,0,-0.8,-10,0)"
         style="fill:#000000;fill-opacity:1;fill-rule:evenodd;stroke:#000000;stroke-width:1pt;stroke-opacity:1"
         d="M 0,0 5,-5 -12.5,0 5,5 Z"
         id="path4525" />
    </marker>
    <marker
       style="overflow:visible"
       id="marker4517"
       refX="0"
       refY="0"
       orient="auto">
      <path
         transform="matrix(0.8,0,0,0.8,10,0)"
         style="fill:#000000;fill-opacity:1;fill-rule:evenodd;stroke:#000000;stroke-width:1pt;stroke-opacity:1"
         d="M 0,0 5,-5 -12.5,0 5,5 Z"
         id="path4515" />
    </marker>
    <marker
       style="overflow:visible"
       id="Arrow1Lend"
       refX="0"
       refY="0"
       orient="auto">
      <path
         transform="matrix(-0.8,0,0,-0.8,-10,0)"
         style="fill:#000000;fill-opacity:1;fill-rule:evenodd;stroke:#000000;stroke-width:1pt;stroke-opacity:1"
         d="M 0,0 5,-5 -12.5,0 5,5 Z"
         id="path4154" />
    </marker>
    <marker
       style="overflow:visible"
       id="Arrow1Lstart"
       refX="0"
       refY="0"
       orient="auto">
      <path
         transform="matrix(0.8,0,0,0.8,10,0)"
         style="fill:#000000;fill-opacity:1;fill-rule:evenodd;stroke:#000000;stroke-width:1pt;stroke-opacity:1"
         d="M 0,0 5,-5 -12.5,0 5,5 Z"
         id="path4151" />
    </marker>
    <marker
       style="overflow:visible"
       id="Arrow1Mstart"
       refX="0"
       refY="0"
       orient="auto">
      <path
         transform="matrix(0.4,0,0,0.4,4,0)"
         style="fill:#000000;fill-opacity:1;fill-rule:evenodd;stroke:#000000;stroke-width:1pt;stroke-opacity:1"
         d="M 0,0 5,-5 -12.5,0 5,5 Z"
         id="path4157" />
    </marker>
  </defs>
  <metadata
     id="metadata3524">
    <rdf:RDF>
      <cc:Work
         rdf:about="">
        <dc:format>image/svg+xml</dc:format>
        <dc:type
           rdf:resource="http://purl.org/dc/dcmitype/StillImage" />
      </cc:Work>
    </rdf:RDF>
  </metadata>
</svg>
